# xmcd
#
# Track frame offsets:
#	150
#	22117
#	49290
#	67484
#	86330
#	105368
#	140969
#	159192
#	180444
#	201492
#
# Disc length: 3017 seconds
#
# Revision: 6
# Processed by: cddbd v1.5.2PL0 Copyright (c) Steve Scherf et al.
# Submitted via: Jack! The Knife
#
DISCID=8f0bc70a
DTITLE=Judas Priest - Ram It Down
DYEAR=1986
DGENRE=Heavy Metal
TTITLE0=Ram It Down
TTITLE1=Heavy Metal
TTITLE2=Love Zone
TTITLE3=Come And Get It
TTITLE4=Hard As Iron
TTITLE5=Blood Red Skies
TTITLE6=I'm A Rocker
TTITLE7=Johnny B. Goode
TTITLE8=Love You To Death
TTITLE9=Monsters Of Rock
EXTD=
EXTT0=Tipton - Halford - Downing
EXTT1=Tipton - Halford - Downing
EXTT2=Tipton - Halford - Downing
EXTT3=Tipton - Halford - Downing
EXTT4=Tipton - Halford - Downing
EXTT5=Tipton - Halford - Downing
EXTT6=Tipton - Halford - Downing
EXTT7=Chuck Berry
EXTT8=Tipton - Halford - Downing
EXTT9=Tipton - Halford - Downing
PLAYORDER=
